<?xml version="1.0" encoding="UTF-8" standalone="no"?>
<!-- Generator: Adobe Illustrator 19.0.0, SVG Export Plug-In . SVG Version: 6.00 Build 0)  -->

<svg
   xmlns:dc="http://purl.org/dc/elements/1.1/"
   xmlns:cc="http://creativecommons.org/ns#"
   xmlns:rdf="http://www.w3.org/1999/02/22-rdf-syntax-ns#"
   xmlns:svg="http://www.w3.org/2000/svg"
   xmlns="http://www.w3.org/2000/svg"
   xmlns:sodipodi="http://sodipodi.sourceforge.net/DTD/sodipodi-0.dtd"
   xmlns:inkscape="http://www.inkscape.org/namespaces/inkscape"
   version="1.1"
   id="Capa_1"
   x="0px"
   y="0px"
   viewBox="0 0 505.231 505.231"
   style="enable-background:new 0 0 505.231 505.231;"
   xml:space="preserve"
   inkscape:version="0.91 r13725"
   sodipodi:docname="favicon.svg"><metadata
     id="metadata85"><rdf:RDF><cc:Work
         rdf:about=""><dc:format>image/svg+xml</dc:format><dc:type
           rdf:resource="http://purl.org/dc/dcmitype/StillImage" /></cc:Work></rdf:RDF></metadata><defs
     id="defs83" /><sodipodi:namedview
     pagecolor="#ffffff"
     bordercolor="#666666"
     borderopacity="1"
     objecttolerance="10"
     gridtolerance="10"
     guidetolerance="10"
     inkscape:pageopacity="0"
     inkscape:pageshadow="2"
     inkscape:window-width="1440"
     inkscape:window-height="832"
     id="namedview81"
     showgrid="false"
     inkscape:zoom="0.46711307"
     inkscape:cx="292.51826"
     inkscape:cy="157.80313"
     inkscape:window-x="-4"
     inkscape:window-y="0"
     inkscape:window-maximized="1"
     inkscape:current-layer="Capa_1" /><rect
     id="rect9"
     height="44.695"
     width="44.673"
     style="fill:#008000"
     y="254.33"
     x="72.758003" /><rect
     id="rect11"
     height="44.652"
     width="44.673"
     style="fill:#008000"
     y="324.996"
     x="72.758003" /><rect
     id="rect13"
     height="44.673"
     width="44.673"
     style="fill:#008000"
     y="183.621"
     x="147.63" /><rect
     id="rect15"
     height="44.695"
     width="44.673"
     style="fill:#008000"
     y="254.33"
     x="147.63" /><rect
     id="rect17"
     height="44.652"
     width="44.673"
     style="fill:#008000"
     y="324.996"
     x="147.63" /><path
     inkscape:connector-curvature="0"
     id="path19"
     d="m 415.842,190.049 0,-130.33 c 0,-17.3 -14.129,-31.429 -31.429,-31.429 l -352.984,0 C 14.129,28.29 0,42.419 0,59.719 l 0,352.963 c 0,17.3 14.129,31.429 31.429,31.429 l 230.398,0 c 25.626,20.514 58.09,32.831 93.466,32.831 82.789,0 149.939,-67.085 149.939,-149.874 -0.023,-61.197 -36.801,-113.744 -89.39,-137.019 z M 136.219,59.158 l 143.273,0 0,37.037 -143.273,0 0,-37.037 z m -97.607,72.413 338.575,0 0,47.413 c -7.162,-1.057 -14.452,-1.79 -21.916,-1.79 -32.982,0 -63.375,10.785 -88.138,28.84 l 0,-22.434 -44.652,0 0,44.673 20.298,0 c -23.189,26.381 -37.339,60.894 -37.339,98.794 0,27.05 7.269,52.352 19.78,74.247 l -186.608,0 0,-269.743 z m 302.918,73.405 c 0,-7.614 6.191,-13.719 13.741,-13.719 7.636,0 13.741,6.105 13.762,13.719 0,7.593 -6.126,13.741 -13.762,13.741 -7.528,0 -13.741,-6.148 -13.741,-13.741 z m -94.588,122.113 c 0,7.614 -6.126,13.784 -13.762,13.784 -7.614,0 -13.741,-6.169 -13.741,-13.784 0,-7.615 6.126,-13.719 13.741,-13.719 7.615,0 13.741,6.104 13.762,13.719 z m 108.329,135.852 c -7.55,0 -13.741,-6.126 -13.741,-13.697 0,-7.636 6.191,-13.805 13.741,-13.805 7.636,0 13.741,6.148 13.762,13.805 0,7.55 -6.126,13.697 -13.762,13.697 z m 83.22,-197.825 -57.529,57.443 c 0.388,1.769 1.079,3.408 1.079,5.285 0,14.905 -12.101,27.007 -27.007,27.007 -14.388,0 -25.907,-11.368 -26.683,-25.605 l -61.11,-47.477 c -5.285,-4.142 -6.536,-11.432 -2.696,-16.307 3.818,-4.94 11.238,-5.544 16.523,-1.402 L 337,307.589 c 4.832,-4.53 11.217,-7.42 18.314,-7.42 4.702,0 8.887,1.51 12.727,3.624 l 54.509,-54.574 c 5.091,-5.069 12.791,-5.565 17.106,-1.186 4.335,4.356 3.839,11.992 -1.165,17.083 z m 38.87,75.735 c -7.593,0 -13.741,-6.169 -13.741,-13.784 0,-7.615 6.148,-13.719 13.741,-13.719 7.615,0 13.784,6.105 13.784,13.719 0,7.614 -6.148,13.784 -13.784,13.784 z"
     style="fill:#008000" /><g
     id="g21" /><g
     id="g23" /><g
     id="g25" /><g
     id="g27" /><g
     id="g29" /><g
     id="g31" /><g
     id="g33" /><g
     id="g35" /><g
     id="g37" /><g
     id="g39" /><g
     id="g41" /><g
     id="g43" /><g
     id="g45" /><g
     id="g47" /><g
     id="g49" /><g
     id="g51" /><g
     id="g53" /><g
     id="g55" /><g
     id="g57" /><g
     id="g59" /><g
     id="g61" /><g
     id="g63" /><g
     id="g65" /><g
     id="g67" /><g
     id="g69" /><g
     id="g71" /><g
     id="g73" /><g
     id="g75" /><g
     id="g77" /><g
     id="g79" /><rect
     id="rect13-9"
     height="44.673"
     width="44.673"
     style="fill:#ff0000"
     y="183.1812"
     x="71.859108"
     ry="10.704046" /></svg>